/* XPM */
static char *bitcoin__[] = {
/* columns rows colors chars-per-pixel */
"64 64 114 2",
"   c #002851",
".  c #002E5D",
"X  c #002F60",
"o  c #003163",
"O  c #003368",
"+  c #003469",
"@  c #00346A",
"#  c #00356C",
"$  c #00356D",
"%  c #00366E",
"&  c #00366F",
"*  c #00376F",
"=  c #003770",
"-  c #003871",
";  c #003872",
":  c #003873",
">  c #003973",
",  c #003974",
"<  c #003975",
"1  c #003A75",
"2  c #003A76",
"3  c #003A77",
"4  c #003B78",
"5  c #003C79",
"6  c #003C7A",
"7  c #003C7B",
"8  c #003D7B",
"9  c #003D7C",
"0  c #003D7D",
"q  c #003E7D",
"w  c #003E7E",
"e  c #013F7F",
"r  c #0B4684",
"t  c #0C4784",
"y  c #0D4885",
"u  c #0E4985",
"i  c #0F4986",
"p  c #144D88",
"a  c #154E89",
"s  c #164F89",
"d  c #174F8A",
"f  c #235890",
"g  c #245990",
"h  c #2D6095",
"j  c #2E6195",
"k  c #4774A2",
"l  c #4874A2",
"z  c #4975A3",
"x  c #4A76A3",
"c  c #4B77A4",
"v  c #4C78A4",
"b  c #507BA6",
"n  c #517BA7",
"m  c #527CA7",
"M  c #537DA8",
"N  c #547EA8",
"B  c #557EA9",
"V  c #5780AA",
"C  c #5881AB",
"Z  c #5981AB",
"A  c #5A82AC",
"S  c #5B83AC",
"D  c #6F92B6",
"F  c #7194B7",
"G  c #7294B8",
"H  c #7F9EBE",
"J  c #84A2C1",
"K  c #86A3C2",
"L  c #87A4C2",
"P  c #91ACC7",
"I  c #92ADC8",
"U  c #93ADC8",
"Y  c #94AEC9",
"T  c #98B1CB",
"R  c #9EB6CE",
"E  c #9FB6CE",
"W  c #A0B7CF",
"Q  c #A8BDD3",
"!  c #A9BED3",
"~  c #AABFD4",
"^  c #B0C3D7",
"/  c #B2C5D8",
"(  c #BACBDC",
")  c #BBCCDD",
"_  c #BDCDDE",
"`  c #CAD7E4",
"'  c #CBD8E5",
"]  c #CCD8E5",
"[  c #D0DBE7",
"{  c #D1DCE8",
"}  c #D6E0EA",
"|  c #D7E1EB",
" . c #D8E1EB",
".. c #E6ECF2",
"X. c #E7EDF3",
"o. c #E8EEF3",
"O. c #E9EEF4",
"+. c #EAEFF4",
"@. c #ECF1F5",
"#. c #EDF1F6",
"$. c #EEF2F6",
"%. c #EFF3F7",
"&. c #F0F4F7",
"*. c #F1F4F8",
"=. c #F2F5F8",
"-. c #F3F6F9",
";. c #F4F7F9",
":. c #F6F8FA",
">. c #F7F9FB",
",. c #F9FAFC",
"<. c #FAFBFC",
"1. c #FEFEFE",
"2. c #FFFFFF",
"3. c None",
/* pixels */
"3.3.3.3.3.3.3.3.3.3.3.3.3.3.3.3.3.3.3.3.3.3.3.3.3.3.3.3.3.3.3.3.3.3.3.3.3.3.3.3.3.3.3.3.3.3.3.3.3.3.3.3.3.3.3.3.3.3.3.3.3.3.3.3.",
"3.3.3.3.3.3.3.3.3.3.3.3.3.3.3.3.3.3.3.3.3.3.3.3.3.3.4 q q q q w w w q q q 4 3.3.3.3.3.3.3.3.3.3.3.3.3.3.3.3.3.3.3.3.3.3.3.3.3.3.",
"3.3.3.3.3.3.3.3.3.3.3.3.3.3.3.3.3.3.3.3.3.3.3.q w w q q w w w w w w w w w w q q q 3.3.3.3.3.3.3.3.3.3.3.3.3.3.3.3.3.3.3.3.3.3.3.",
"3.3.3.3.3.3.3.3.3.3.3.3.3.3.3.3.3.3.3.3.q q q q w w w w w w w w w w w w w w w w w q q 0 3.3.3.3.3.3.3.3.3.3.3.3.3.3.3.3.3.3.3.3.",
"3.3.3.3.3.3.3.3.3.3.3.3.3.3.3.3.3.3.q q w w w w w w w w w w w w w w w w w w w w w w w w q q 3.3.3.3.3.3.3.3.3.3.3.3.3.3.3.3.3.3.",
"3.3.3.3.3.3.3.3.3.3.3.3.3.3.3.3.0 w q q w w w w w w w w w w w w w w w w w w w w w w w w q q q 0 3.3.3.3.3.3.3.3.3.3.3.3.3.3.3.3.",
"3.3.3.3.3.3.3.3.3.3.3.3.3.3.3.q w w w w w w w w w w w w w w w w w w w w w w w w w w w w w w w w q 3.3.3.3.3.3.3.3.3.3.3.3.3.3.3.",
"3.3.3.3.3.3.3.3.3.3.3.3.3.6 q q w w w w w w w w w w w w w w w w w w w w w w w w w w w w w w w w q w 6 3.3.3.3.3.3.3.3.3.3.3.3.3.",
"3.3.3.3.3.3.3.3.3.3.3.3.6 w w w w w w w w w w w w w w q w q w q w w w w q q w w w w w w w w w w w w q q 3.3.3.3.3.3.3.3.3.3.3.3.",
"3.3.3.3.3.3.3.3.3.3.3.q q q w w w w w w w w q q w r k L ^ | $.,.,.$.{ ^ K z r w w w w w w w w w w w q w q 3.3.3.3.3.3.3.3.3.3.3.",
"3.3.3.3.3.3.3.3.3.3.q q w w w w w w w w w w w z ! >.1.1.1.1.1.1.1.1.1.1.1.1.>.! c w w w w w q q w w w w q q 3.3.3.3.3.3.3.3.3.3.",
"3.3.3.3.3.3.3.3.3.6 q q w w w w w w w w w m { 1.1.1.1.1.1.1.1.1.1.1.1.1.1.1.1.1.1.[ m w w w w q w w q q q q 6 3.3.3.3.3.3.3.3.3.",
"3.3.3.3.3.3.3.3.4 w w w w w w w q w w f ) 1.1.1.1.1.1.1.1.1.1.1.1.1.1.1.1.1.1.1.1.1.1.) f q q q w w w w w w w 4 3.3.3.3.3.3.3.3.",
"3.3.3.3.3.3.3.3.w w w w w w w w q q B -.1.1.1.1.1.1.1.1.1...] _ _ ] ..1.1.1.1.1.1.1.1.1.-.A 0 0 w w w w w w w w 3.3.3.3.3.3.3.3.",
"3.3.3.3.3.3.3.q w w w w w w w w r H 1.1.1.1.1.1.1.-.W N d q w w q w w d N W -.1.1.1.1.1.1.1.K r w w w w w w w w q 3.3.3.3.3.3.3.",
"3.3.3.3.3.3.4 w w w w w w w w w Y 1.1.1.1.1.1.+.G r q q w w w w q w w w q w r G +.1.1.1.1.1.1.v w w w w w w w w q 4 3.3.3.3.3.3.",
"3.3.3.3.3.3.q w w w w w w w q L 1.1.1.1.1.1.I u w w w w w w w w w w w w w w w w u I 1.1.1.1.J w w w w w w w w w w w 3.3.3.3.3.3.",
"3.3.3.3.3.6 w w w w w w w w A 1.1.1.1.1.-.c q q w w w w w w w w w w w w w w w w w q c -.1.H q w w w w w w w w w w w 6 3.3.3.3.3.",
"3.3.3.3.3.w w w w w w w w f -.1.1.1.1...h w q w w w w w w w w w w w w w w w w w w w w h G q w w w w w w w w w w w w w 3.3.3.3.3.",
"3.3.3.3.4 w w w w w w w w ) 1.1.1.1.-.h w w w w w w w w w w w w w w w w w w w w w w w w w w w w w w w w w w w w w w w 4 3.3.3.3.",
"3.3.3.3.w w w w w w w w M 1.1.1.1.1.v w w w w w w w w w w w w w w w w w w w w w w w w w w w w w w w w w w w w w w w w w 3.3.3.3.",
"3.3.3.3.w w w w w w w w [ 1.1.1.1.Y w w w w w w w w w w w w w w w w w w w w w w w w w w w w w w w w w w w w w w w w w w 3.3.3.3.",
"3.3.3.4 w w w w w w q k 1.1.1.1.+.u w w w w w w w w w w w w w w w w w w w w w w w w w w w w w w w w w w w w w w w w w w 4 3.3.3.",
"3.3.3.w w w w w w w q ! 1.1.1.1.G q w w w w w w w w w w w w w w w w w w w w w w w w w w w w w w w w w w w w w w w w w w q 3.3.3.",
"3.3.3.w w w w w w w r ,.1.1.1.-.r w w w w w w w w w w w w w w w w w w w w w w w w w w w w w w w w w w w w w w w w w w w w 3.3.3.",
"3.3.= w w w w w w w k 1.1.1.1.W q w w w w w w w w w w w w w w w w w w w w w w w w w w w w w w w w w w w w w w w w w w w w = 3.3.",
"3.3.< q w w w w w w K 1.1.1.1.N w w w w w w w w w w w w w w w w w w w w w w w w w w w w w w w w w w w w w w w w w w w w q < 3.3.",
"3.3.4 q w w w w w q / 1.1.1.1.d w w w w w w w w w w w w w w w w w w w w w w w w w w w w w w w w w w w w w w w w w w w w q 4 3.3.",
"3.3.0 q q w w w w w | 1.1.1.+.q w w w w w w w w w w w w w w w w N N N N N N N N N N N N N N N N N N N N N N w w w w w w w 0 3.3.",
"3.3.q w w w w w w w #.1.1.1.' w w w w w w w w w w w w w w w w w 1.1.1.1.1.1.1.1.1.1.1.1.1.1.1.1.1.1.1.1.1.1.w w w w w w w q 3.3.",
"3.3.q w w w w w w w ,.1.1.1._ w w w w w w w w w w w w w w w w w 1.1.1.1.1.1.1.1.1.1.1.1.1.1.1.1.1.1.1.1.1.1.w w w w w w q q 3.3.",
"3.3.w w w w w w w w ,.1.1.1._ q w w w w w w w w w w w w w w w w 1.1.1.1.1.1.1.1.1.1.1.1.1.1.1.1.1.1.1.1.1.,.w w w w w w w q 3.3.",
"3.3.q w w w w w w q #.1.1.1.` q w w w w w w w w w w w w w w w w 1.1.1.1.1.1.1.1.1.1.1.1.1.1.1.1.1.1.1.1.1.#.q w w w w w w q 3.3.",
"3.3.0 w w w w w w q | 1.1.1.+.q w w w w w w w w w w w w w w w w N N B N N N N N N N N N N N B N N >.1.1.1. .q w w w w w w q 3.3.",
"3.3.4 w w w w w w w / 1.1.1.1.d w w w w w w w w w w w w w w w w w w w w w w w w w w w w w w w w d 1.1.1.1./ w w w w w w q < 3.3.",
"3.3.= w w w w w w w L 1.1.1.1.N w w w w w w w w w w w w w w w w w w w w w w w w w w w w w w w w N 1.1.1.1.K w w w w w w w - 3.3.",
"3.3.@ q w w w w w w c 1.1.1.1.W w w w w w w w w w w w w w w w w w w w w w w w w w w w w w w q q E 1.1.1.1.z w w w w w w w @ 3.3.",
"3.3.3.q w w w w w w r >.1.1.1.-.r w w w w w w w w w w w w w w w w w w w w w w w w w w w w w w r -.1.1.1.>.r w w w w w w w 3.3.3.",
"3.3.3.q w w w w w w q ! 1.1.1.1.G w w w w w w w w w w w w w w w w w w w w w w w w w w w w w q G 1.1.1.1.! q w w w w w w q 3.3.3.",
"3.3.3.< w w w w w w q k 1.1.1.1.+.u w w w w w w w w w w w w w w w w w w w w w w w w w w w w u +.1.1.1.1.z q w w w w w w < 3.3.3.",
"3.3.3.o q w w w w w w w { 1.1.1.1.I q w w w w w w w w w w w w w w w w w w w w w w w w w q w I 1.1.1.1.{ w w w w w w q w o 3.3.3.",
"3.3.3.3.q w w w w w w w M 1.1.1.1.1.c q w w w w w w w w w w w w w w w w w w w w w w w w q c 1.1.1.1.1.M w w w w w w q q 3.3.3.3.",
"3.3.3.3.< w w w w w w w q ) 1.1.1.1.-.h w w w w w w w w w w w w w w w w w w w w w w w w h &.1.1.1.1._ w w w w w w w w < 3.3.3.3.",
"3.3.3.3.3.w w w w w w w q f -.1.1.1.1...h w w w w w w w w w w w w w w w w w w w w w w h +.1.1.1.1.-.g w w w w w w w w 3.3.3.3.3.",
"3.3.3.3.3.< q q w w w w w w V 1.1.1.1.1.-.c q q w w w w w w w w w w w w w w w w w w c #.1.1.1.1.1.A q q w w w w w w < 3.3.3.3.3.",
"3.3.3.3.3.3.w q w w w w w q q J 1.1.1.1.1.1.I i w q w w w w w w w w w w w w w q r I 1.1.1.1.1.1.L q w w w w w w w w 3.3.3.3.3.3.",
"3.3.3.3.3.3.= w w w w w w w w r Y 1.1.1.1.1.1...G r q q w w q w w w w w w w u D +.1.1.1.1.1.1.T w w w w w w w q w - 3.3.3.3.3.3.",
"3.3.3.3.3.3.3.q w w w w w w w w q K 1.1.1.1.1.1.1.-.E M d w q q w w w d m W *.1.1.1.1.1.1.1.K q w w w w w w w q q 3.3.3.3.3.3.3.",
"3.3.3.3.3.3.3.3.q w w w w w w w w w A -.1.1.1.1.1.1.1.1.1.@.' _ ) ] +.1.1.1.1.1.1.1.1.1.-.S w w w w w w w w w q 3.3.3.3.3.3.3.3.",
"3.3.3.3.3.3.3.3.# w w w w w w w w w w g _ 1.1.1.1.1.1.1.1.1.1.1.1.1.1.1.1.1.1.1.1.1.1.) g w w w w w w w w w w # 3.3.3.3.3.3.3.3.",
"3.3.3.3.3.3.3.3.3.< q q w w w w w w w w q M { 1.1.1.1.1.1.1.1.1.1.1.1.1.1.1.1.1.1.{ M w q w w w w w w w w w < 3.3.3.3.3.3.3.3.3.",
"3.3.3.3.3.3.3.3.3.3.< q w w w w w w w w q w w c ^ ,.1.1.1.1.1.1.1.1.1.1.1.1.>.! c q w w w w w w w w w w q < 3.3.3.3.3.3.3.3.3.3.",
"3.3.3.3.3.3.3.3.3.3.3.< w q q w w w w w w w w w q r l K / | $.,.<.$. ./ K c r w q w w w w w w w w w q q < 3.3.3.3.3.3.3.3.3.3.3.",
"3.3.3.3.3.3.3.3.3.3.3.3.< q w w w w w w w w w w q q w w w w w w q w w w w w q q q w w w w w w w w w q < 3.3.3.3.3.3.3.3.3.3.3.3.",
"3.3.3.3.3.3.3.3.3.3.3.3.3.@ w w w w w w w w w w q w w w w w w w w w w w w w w w w w w w w w w w w w @ 3.3.3.3.3.3.3.3.3.3.3.3.3.",
"3.3.3.3.3.3.3.3.3.3.3.3.3.3.  q w w w w w w w w q w w w w w w w w w w w w w w w w w w w w w w w q   3.3.3.3.3.3.3.3.3.3.3.3.3.3.",
"3.3.3.3.3.3.3.3.3.3.3.3.3.3.3.3.# q q q w w w w w w w w w w w w w w w w w w w w w w w w w w q # 3.3.3.3.3.3.3.3.3.3.3.3.3.3.3.3.",
"3.3.3.3.3.3.3.3.3.3.3.3.3.3.3.3.3.3.< q w w w w w w w w w w w w w w w w w w w w w q w w q < 3.3.3.3.3.3.3.3.3.3.3.3.3.3.3.3.3.3.",
"3.3.3.3.3.3.3.3.3.3.3.3.3.3.3.3.3.3.3.3.= q w q w w w w w w q q w w w w w w w w q q q - 3.3.3.3.3.3.3.3.3.3.3.3.3.3.3.3.3.3.3.3.",
"3.3.3.3.3.3.3.3.3.3.3.3.3.3.3.3.3.3.3.3.3.3.. < w w w w w w q q w w w w w w w w < . 3.3.3.3.3.3.3.3.3.3.3.3.3.3.3.3.3.3.3.3.3.3.",
"3.3.3.3.3.3.3.3.3.3.3.3.3.3.3.3.3.3.3.3.3.3.3.3.3.3.o # < 6 6 q q 6 4 < # o 3.3.3.3.3.3.3.3.3.3.3.3.3.3.3.3.3.3.3.3.3.3.3.3.3.3.",
"3.3.3.3.3.3.3.3.3.3.3.3.3.3.3.3.3.3.3.3.3.3.3.3.3.3.3.3.3.3.3.3.3.3.3.3.3.3.3.3.3.3.3.3.3.3.3.3.3.3.3.3.3.3.3.3.3.3.3.3.3.3.3.3.",
"3.3.3.3.3.3.3.3.3.3.3.3.3.3.3.3.3.3.3.3.3.3.3.3.3.3.3.3.3.3.3.3.3.3.3.3.3.3.3.3.3.3.3.3.3.3.3.3.3.3.3.3.3.3.3.3.3.3.3.3.3.3.3.3.",
"3.3.3.3.3.3.3.3.3.3.3.3.3.3.3.3.3.3.3.3.3.3.3.3.3.3.3.3.3.3.3.3.3.3.3.3.3.3.3.3.3.3.3.3.3.3.3.3.3.3.3.3.3.3.3.3.3.3.3.3.3.3.3.3."
};
