/* XPM */
static char *bitcoin__[] = {
/* columns rows colors chars-per-pixel */
"16 16 31 1",
"  c #003E7E",
". c #064381",
"X c #074382",
"o c #0F4986",
"O c #164F89",
"+ c #174F8A",
"@ c #18508A",
"# c #1B528C",
"$ c #547EA8",
"% c #557EA9",
"& c #567FAA",
"* c #658AB1",
"= c #6D90B5",
"- c #6E91B6",
"; c #6F92B6",
": c #8BA7C4",
"> c #8DA9C5",
", c #AABFD4",
"< c #C7D5E3",
"1 c #CAD7E4",
"2 c #CBD8E5",
"3 c #CFDBE7",
"4 c #D0DBE7",
"5 c #D1DCE8",
"6 c #EEF2F6",
"7 c #EFF3F7",
"8 c #F0F4F7",
"9 c #F3F6F9",
"0 c #F4F7F9",
"q c #F9FAFC",
"w c None",
/* pixels */
"wwwww      wwwww",
"www          www",
"ww  .=109<-.  ww",
"w  #36>%&>65o  w",
"w .31O    O*   w",
"  =8O           ",
"  <>            ",
"  q%    ,,,,,,  ",
"  q%    ,,,,19  ",
"  <>        :<  ",
"  =8O      O6-  ",
"w X41O    #15. w",
"w  #56>*$>65#  w",
"ww  X=2093=.  ww",
"www          www",
"wwwww      wwwww"
};
