/* XPM */
static char *bitcoin__[] = {
/* columns rows colors chars-per-pixel */
"32 32 79 1",
"  c #002953",
". c #003062",
"X c #003266",
"o c #003367",
"O c #003469",
"+ c #00356C",
"@ c #00366D",
"# c #00366F",
"$ c #003872",
"% c #003973",
"& c #003974",
"* c #003A76",
"= c #003B77",
"- c #003B78",
"; c #003B79",
": c #003C79",
"> c #003C7A",
", c #003C7B",
"< c #003D7B",
"1 c #003D7C",
"2 c #003D7D",
"3 c #003E7D",
"4 c #003E7E",
"5 c #084482",
"6 c #094583",
"7 c #114B87",
"8 c #124C87",
"9 c #1C538C",
"0 c #1E558D",
"q c #1F558E",
"w c #20568E",
"e c #21578F",
"r c #235890",
"t c #245990",
"y c #336598",
"u c #5A82AC",
"i c #5C84AD",
"p c #5D84AD",
"a c #678CB2",
"s c #688DB3",
"d c #6A8EB4",
"f c #6B8FB4",
"g c #7496B9",
"h c #7899BB",
"j c #799ABB",
"k c #7A9ABC",
"l c #7C9CBD",
"z c #809FBF",
"x c #83A1C0",
"c c #9DB5CD",
"v c #A1B8CF",
"b c #A6BCD2",
"n c #A7BCD2",
"m c #B2C5D8",
"M c #B3C5D9",
"N c #BACBDC",
"B c #BCCCDD",
"V c #C3D2E1",
"C c #C4D2E1",
"Z c #CAD7E4",
"A c #D2DDE8",
"S c #D3DEE9",
"D c #D7E1EB",
"F c #D9E2EC",
"G c #E1E8F0",
"H c #E2E9F0",
"J c #E3EAF1",
"K c #E4EBF1",
"L c #E5EBF2",
"P c #EFF3F7",
"I c #F0F4F7",
"U c #F2F5F8",
"Y c #F3F6F9",
"T c #F9FAFC",
"R c #FAFBFC",
"E c #FCFDFD",
"W c #FDFDFE",
"Q c #FFFFFF",
"! c None",
/* pixels */
"!!!!!!!!!!!!!!!!!!!!!!!!!!!!!!!!",
"!!!!!!!!!!!!;444444>!!!!!!!!!!!!",
"!!!!!!!!!>444444444444>!!!!!!!!!",
"!!!!!!!!4444444444444444!!!!!!!!",
"!!!!!!;444444444444444444;!!!!!!",
"!!!!!>444447fMGTYDmf744444>!!!!!",
"!!!!;44445hPQQQQQQQQPh54444;!!!!",
"!!!!4444wSQQWVxffzVQQQSw4444!!!!",
"!!!44449KQQbe4444440vQQg44444!!!",
"!!$4445ZQTu4444444444ul444444$!!",
"!!4444gQQi44444444444444444444!!",
"!!4448IQv444444444444444444444!!",
"!$444fQQ0444444444444444444444$!",
"!=444mQB4444444444444444444444;!",
"!4444HQz44444444yyyyyyyyyyy444>!",
"!4444TQf44444444QQQQQQQQQQQ4444!",
"!4444YQf44444444QQQQQQQQQQT4444!",
"!;444DQx44444444yyyyyyyycQH4444!",
"!=444mQN4444444444444444BQM444=!",
"!@444fQQw44444444444444tQQf444@!",
"!!4447IQv44444444444444vQY8444!!",
"!!4444hQQi444444444444pQQj444>!!",
"!!X4445SQTu4444444444pTQS5444X!!",
"!!!>444tKQQbw444444rnQQKt444>!!!",
"!!!!4444wSQQQVxfflNQQQSw4444!!!!",
"!!!!O44445jIQQQQQQQQPj54444O!!!!",
"!!!!!@444447fMGTTHMf744444@!!!!!",
"!!!!!!O444444444444444444O!!!!!!",
"!!!!!!! >44444444444444> !!!!!!!",
"!!!!!!!!!.444444444444.!!!!!!!!!",
"!!!!!!!!!!!!X=>444$X!!!!!!!!!!!!",
"!!!!!!!!!!!!!!!!!!!!!!!!!!!!!!!!"
};
